<?xml version="1.0" encoding="UTF-8"?>
<!DOCTYPE svg PUBLIC "-//W3C//DTD SVG 1.1//EN" "http://www.w3.org/Graphics/SVG/1.1/DTD/svg11.dtd">
<!-- Creator: CorelDRAW X7 -->
<svg xmlns="http://www.w3.org/2000/svg" xml:space="preserve" width="150mm" height="60mm" version="1.1" style="shape-rendering:geometricPrecision; text-rendering:geometricPrecision; image-rendering:optimizeQuality; fill-rule:evenodd; clip-rule:evenodd"
viewBox="0 0 15000 6000"
 xmlns:xlink="http://www.w3.org/1999/xlink">
 <defs>
  <style type="text/css">
   <![CDATA[
    .fil0 {fill:#080808}
    .fil1 {fill:#EB941F}
   ]]>
  </style>
 </defs>
 <g id="Capa_x0020_1">
  <metadata id="CorelCorpID_0Corel-Layer"/>
  <path class="fil0" d="M1581 3121c334,6 858,-77 856,393 -2,478 -523,395 -859,404l3 -797zm6 -1211c318,2 430,-39 654,134 213,165 156,356 -67,483 -209,119 -244,91 -596,102l9 -719zm928 879c419,-280 901,-819 197,-1223 -356,-205 -1367,-170 -1805,-140l1 2965c2758,336 2636,-1176 1607,-1602z"/>
  <path class="fil0" d="M5631 2804c674,-418 918,872 397,1106 -674,302 -830,-838 -397,-1106zm627 -335c-703,-675 -1528,34 -1532,916 -5,1013 974,1452 1505,788 227,387 35,236 712,236l-4 -3166 -653 12 -28 1214z"/>
  <path class="fil0" d="M12453 4410c33,-583 -109,-1102 155,-1564 77,-135 167,-125 318,-71 487,172 272,1062 287,1637l649 0c38,-968 177,-3074 -1402,-1845 22,-131 -29,-221 -82,-295l-581 6 6 2131 650 1z"/>
  <polygon class="fil0" points="3513,4411 4174,4411 4174,2272 3515,2276 "/>
  <path class="fil0" d="M3474 1639c55,448 810,367 746,-105 -56,-408 -804,-376 -746,105z"/>
  <path class="fil1" d="M10849 4850l-1821 -1719c-271,144 -266,120 -552,-117 -238,-256 -203,-290 6,-534 161,-189 369,-399 496,-525 233,-229 325,-375 606,-98 388,422 253,329 38,671l1713 1652c1261,-1987 -1759,-5102 -3637,-2620 -1558,2058 1019,5076 3151,3290zm-2661 -2112c243,461 160,388 657,600 -168,150 -192,295 -426,159 -124,-72 -254,-183 -355,-288 -95,-99 -145,-155 -60,-281 45,-68 135,-140 184,-190zm1737 -485c-206,-479 -128,-400 -608,-650 180,-136 215,-279 438,-125 118,81 238,202 331,315 87,106 132,166 38,285 -51,64 -145,129 -199,175z"/>
 </g>
</svg>
