<?xml version="1.0" encoding="UTF-8"?>
<!DOCTYPE svg PUBLIC "-//W3C//DTD SVG 1.1//EN" "http://www.w3.org/Graphics/SVG/1.1/DTD/svg11.dtd">
<!-- Creator: CorelDRAW X7 -->
<svg xmlns="http://www.w3.org/2000/svg" xml:space="preserve" width="297mm" height="210mm" version="1.1" style="shape-rendering:geometricPrecision; text-rendering:geometricPrecision; image-rendering:optimizeQuality; fill-rule:evenodd; clip-rule:evenodd"
viewBox="0 0 29700 21000"
 xmlns:xlink="http://www.w3.org/1999/xlink">
 <defs>
  <style type="text/css">
   <![CDATA[
    .fil0 {fill:#323332}
    .fil1 {fill:#EB941F}
   ]]>
  </style>
 </defs>
 <g id="Capa_x0020_1">
  <metadata id="CorelCorpID_0Corel-Layer"/>
  <path class="fil0" d="M7353 9960c334,7 858,-76 856,393 -2,478 -522,396 -858,405l2 -798zm6 -1210c318,2 430,-39 654,133 214,166 156,357 -67,484 -209,119 -244,91 -596,102l9 -719zm928 878c420,-280 901,-818 197,-1223 -356,-204 -1367,-169 -1804,-139l0 2965c2759,336 2636,-1176 1607,-1603z"/>
  <path class="fil0" d="M11403 9643c674,-417 918,873 397,1107 -674,302 -829,-839 -397,-1107zm627 -334c-702,-675 -1528,33 -1532,916 -4,1013 975,1452 1505,787 227,387 35,237 712,237l-4 -3166 -653 12 -28 1214z"/>
  <path class="fil0" d="M18225 11250c34,-583 -108,-1102 155,-1564 77,-136 168,-125 318,-72 487,173 272,1063 287,1638l649 -1c38,-967 177,-3073 -1402,-1844 22,-132 -28,-221 -81,-296l-582 7 7 2131 649 1z"/>
  <polygon class="fil0" points="9285,11251 9946,11251 9947,9111 9288,9115 "/>
  <path class="fil0" d="M9247 8478c55,449 810,368 745,-104 -55,-409 -804,-376 -745,104z"/>
  <path class="fil1" d="M16621 11689l-1821 -1719c-270,145 -266,120 -551,-116 -238,-257 -204,-290 5,-534 161,-189 369,-399 496,-525 233,-230 325,-375 606,-98 388,422 253,329 38,671l1713 1652c1262,-1987 -1759,-5102 -3637,-2620 -1558,2058 1019,5075 3151,3289zm-2661 -2111c243,461 160,388 657,600 -168,149 -192,294 -426,159 -124,-72 -253,-183 -354,-288 -95,-99 -146,-155 -61,-281 46,-68 135,-140 184,-190zm1738 -485c-207,-480 -129,-400 -608,-651 179,-135 214,-278 437,-125 118,82 239,203 331,316 87,106 133,165 38,285 -50,64 -145,129 -198,175z"/>
 </g>
</svg>
